<?xml version="1.0" encoding="UTF-8"?><svg id="_レイヤー_2" xmlns="http://www.w3.org/2000/svg" viewBox="0 0 125.72 107.16"><defs><style>.cls-1{fill:#fff;}.cls-2,.cls-3,.cls-4{fill:#c78e66;}.cls-3{font-size:13.34px;}.cls-3,.cls-4{font-family:Marion-Regular, Marion;}.cls-4{font-size:24.91px;letter-spacing:.34em;}</style></defs><g id="_レイヤー_1-2"><g><path class="cls-2" d="M58.93,31.74c-9.59,0-12.64-4.86-12.64-4.86,0,11.16,7.13,17.24,12.64,20.07v-15.21Z"/><path class="cls-2" d="M58.93,31.74c7.81,0,11.72-2.94,11.72-2.94,0,11.16-7.81,16.23-11.72,18.15v-15.21Z"/></g><path class="cls-2" d="M59.63,12.66c-16.04,.54-19.32,17.49,.75,17.19-11.38-8.78-.75-17.19-.75-17.19Z"/><path class="cls-2" d="M59.27,17.68c8.55,.89,5.51,9.88,1.82,12.18,15.69-.88,11.76-19.12-1.82-12.18Z"/><path class="cls-2" d="M55.76,47.73c-18.51-1.9-24.57-12.47-23.49-21.42-13.89,8.44-11.28,12.14-5.32,17.78,7.04,6.66,5.22,17.99,28.81,3.64Z"/><path class="cls-2" d="M53.1,2.93c-7.94,2.86-8.72,10.95-8.72,10.95-9.66,1.52-11.87,10.24-11.87,10.24-3.48,1.45-6.82,4.83-6.82,4.83-2.63-13.11,.11-18.8,7.18-20.86,7.07-2.06,4.27-13.32,20.23-5.16Z"/><path class="cls-2" d="M44.24,15.71c-.76,9.64,1.82,24.73,11.37,30.27-24.48-1.42-29.08-27.2-11.37-30.27Z"/><path class="cls-2" d="M62.32,47.73c18.51-1.9,24.57-12.47,23.49-21.42,13.89,8.44,11.28,12.14,5.32,17.78-7.04,6.66-5.22,17.99-28.81,3.64Z"/><path class="cls-2" d="M64.98,2.93c7.94,2.86,8.72,10.95,8.72,10.95,9.66,1.52,11.87,10.24,11.87,10.24,3.48,1.45,6.82,4.83,6.82,4.83,2.63-13.11-.11-18.8-7.18-20.86s-4.27-13.32-20.23-5.16Z"/><path class="cls-2" d="M73.84,15.71c.76,9.64-1.82,24.73-11.37,30.27,24.48-1.42,29.08-27.2,11.37-30.27Z"/><g><path class="cls-2" d="M59.1,39.68c-6.95,0-14.53-5.56-20.84,1.32-.21,10.33,12.84,18.55,20.84,18.55s21.05-8.21,20.84-18.55c-6.32-6.89-13.89-1.32-20.84-1.32Z"/><path class="cls-1" d="M59.1,60.49c-5.24,0-12.03-3.2-16.53-7.79-3.52-3.59-5.33-7.64-5.25-11.71v-.35s.25-.26,.25-.26c4.74-5.17,10.3-3.84,15.21-2.66,2.21,.53,4.3,1.03,6.33,1.03s4.12-.5,6.33-1.03c4.91-1.18,10.46-2.51,15.21,2.66l.24,.26v.35c.09,4.07-1.73,8.12-5.24,11.71-4.5,4.59-11.29,7.79-16.53,7.79Zm-19.9-19.11c.05,4.32,2.57,7.81,4.72,10,4.1,4.19,10.49,7.23,15.19,7.23s11.08-3.04,15.19-7.23c2.14-2.19,4.67-5.68,4.72-10-3.94-4.05-8.41-2.98-13.14-1.84-2.22,.53-4.51,1.08-6.77,1.08s-4.55-.55-6.77-1.08c-4.73-1.14-9.2-2.21-13.14,1.84Z"/></g><g><path class="cls-2" d="M59.19,11.23c5.66,0,16.97,2.21,16.97,2.21,.17-5.6-10.45-11.72-16.97-11.72s-17.8,6.8-17.63,12.4c0,0,11.97-2.89,17.63-2.89Z"/><path class="cls-1" d="M40.96,14.91l-.02-.77c-.06-1.81,.94-3.82,2.87-5.81,3.87-3.99,10.77-7.24,15.38-7.24s11.22,2.95,14.87,6.71c1.84,1.89,2.78,3.85,2.72,5.65l-.02,.74-.72-.14c-.11-.02-11.32-2.2-16.85-2.2s-17.36,2.85-17.48,2.87l-.75,.18ZM59.19,2.34c-4.24,0-10.88,3.14-14.48,6.86-1.4,1.44-2.24,2.85-2.46,4.12,2.84-.66,12.08-2.71,16.94-2.71s13.6,1.57,16.29,2.07c-.2-1.26-.99-2.63-2.32-4-3.39-3.49-9.66-6.33-13.97-6.33Z"/></g><g><path class="cls-2" d="M42.7,51.68c1.6-.5,2.57-3.99,1.28-6.51-1.86-3.61-7.46-3.41-8.4-1.88-1.28,2.08,4.45,9.22,7.12,8.39Z"/><path class="cls-1" d="M42.23,52.67c-1.87,0-4.06-1.92-5.59-3.89-.72-.93-2.99-4.11-1.85-5.97,.72-1.17,2.57-1.53,4.07-1.48,2.67,.1,4.88,1.38,5.93,3.41,.86,1.68,.94,3.92,.19,5.71-.46,1.1-1.17,1.85-2.01,2.11h0c-.24,.07-.49,.11-.74,.11Zm-3.69-9.5c-1.28,0-2.05,.38-2.18,.6-.19,.31,.13,1.82,1.73,3.88,1.74,2.24,3.6,3.38,4.33,3.15,.23-.07,.58-.39,.86-1.06,.45-1.07,.58-2.77-.13-4.15-1.1-2.13-3.62-2.39-4.36-2.42-.08,0-.17,0-.25,0Z"/></g><g><path class="cls-2" d="M74.56,51.4c-1.6-.5-2.57-3.99-1.28-6.51,1.86-3.61,7.46-3.41,8.4-1.88,1.28,2.08-4.45,9.22-7.12,8.39Z"/><path class="cls-1" d="M75.03,52.38c-.25,0-.5-.04-.74-.11-.83-.26-1.55-1.01-2.01-2.11-.75-1.79-.68-4.03,.19-5.71,1.05-2.04,3.27-3.31,5.93-3.41,1.5-.05,3.35,.3,4.07,1.48,1.14,1.87-1.13,5.04-1.85,5.97-1.53,1.97-3.72,3.89-5.59,3.89Zm3.69-9.5c-.08,0-.16,0-.25,0-.75,.03-3.27,.28-4.36,2.42-.71,1.38-.58,3.08-.13,4.15,.28,.67,.63,.99,.86,1.06h0c.72,.23,2.59-.91,4.33-3.15,1.61-2.06,1.92-3.57,1.73-3.88-.14-.22-.91-.6-2.18-.6Z"/></g><text class="cls-3" transform="translate(31.7 74.84)"><tspan x="0" y="0">Rose salon</tspan></text><text class="cls-4" transform="translate(0 99.69)"><tspan x="0" y="0">GRACE</tspan></text></g></svg>