<?xml version="1.0" encoding="UTF-8"?><svg id="_レイヤー_2" xmlns="http://www.w3.org/2000/svg" viewBox="0 0 128.15 117.38"><defs><style>.cls-1{fill:#ead921;}.cls-2,.cls-3{fill:#308c3a;}.cls-3{font-family:DINAlternate-Bold, 'DIN Alternate';font-size:26.7px;font-weight:700;letter-spacing:.07em;}</style></defs><g id="_レイヤー_1-2"><text class="cls-3" transform="translate(0 110.06)"><tspan x="0" y="0">Alile Care</tspan></text><g><path class="cls-1" d="M102.52,82.16c-6.99-3.61-30.24-17.54-36.13-44.96-2.94-13.69-3.21-25.65-.73-32.82l8.22,2.63c-1.53,4.43-2.07,14.24,.99,28.51,5.13,23.88,25.6,36.12,31.75,39.31l-4.1,7.34Z"/><g><path class="cls-2" d="M65.44,82.21l-7.84-3.87,25.02-50.67c1.39-2.42,.62-5.55-1.71-6.98-2.16-1.33-5.03-.8-6.66,1.18-4.49,8.9-10.42,20.81-15.67,31.34-5.89,11.81-10.54,21.14-11.58,23.11l-7.73-4.09c.99-1.87,5.85-11.63,11.48-22.92,5.32-10.68,11.36-22.78,15.87-31.74l.16-.32,.21-.29c4.26-5.83,12.37-7.47,18.48-3.73,6.28,3.85,8.41,12.19,4.8,18.65l-24.84,50.33Z"/><path class="cls-2" d="M36.61,81.8c-2.58,0-5.27-.77-7.83-2.34-6.26-3.86-8.38-12.21-4.75-18.66,4.17-8.4,9.85-19.56,15.34-30.36,5.51-10.84,11.2-22.05,15.37-30.43l7.87,3.5c-4.18,8.42-9.93,20.03-15.45,30.89-5.5,10.83-11.19,22.03-15.36,30.4l-.13,.24c-1.39,2.42-.63,5.55,1.69,6.98,.98,.61,4.33,2.31,6.6-.83,6.91-12.82,16.69-32.81,22.55-44.78,2.59-5.28,4.29-8.77,4.91-9.93l7.72,4.11c-.55,1.03-2.41,4.84-4.78,9.66-5.92,12.09-15.83,32.34-22.83,45.3l-.23,.37c-2.6,3.85-6.51,5.87-10.71,5.87Z"/></g></g></g></svg>